<svg width="20" height="15" viewBox="0 0 20 15" fill="none" xmlns="http://www.w3.org/2000/svg">
<path d="M2.5 1.36364H17.5C17.7761 1.36364 18 1.05835 18 0.681818C18 0.305287 17.7761 0 17.5 0H2.5C2.22388 0 2 0.305287 2 0.681818C2 1.05835 2.22388 1.36364 2.5 1.36364ZM19.5 6.81818H0.5C0.223877 6.81818 0 7.12347 0 7.5C0 7.87653 0.223877 8.18182 0.5 8.18182H19.5C19.7761 8.18182 20 7.87653 20 7.5C20 7.12347 19.7761 6.81818 19.5 6.81818ZM17.5 13.6364H2.5C2.22388 13.6364 2 13.9417 2 14.3182C2 14.6947 2.22388 15 2.5 15H17.5C17.7761 15 18 14.6947 18 14.3182C18 13.9417 17.7761 13.6364 17.5 13.6364Z" fill="white"/>
<path d="M2.5 1.36364H17.5C17.7761 1.36364 18 1.05835 18 0.681818C18 0.305287 17.7761 0 17.5 0H2.5C2.22388 0 2 0.305287 2 0.681818C2 1.05835 2.22388 1.36364 2.5 1.36364ZM19.5 6.81818H0.5C0.223877 6.81818 0 7.12347 0 7.5C0 7.87653 0.223877 8.18182 0.5 8.18182H19.5C19.7761 8.18182 20 7.87653 20 7.5C20 7.12347 19.7761 6.81818 19.5 6.81818ZM17.5 13.6364H2.5C2.22388 13.6364 2 13.9417 2 14.3182C2 14.6947 2.22388 15 2.5 15H17.5C17.7761 15 18 14.6947 18 14.3182C18 13.9417 17.7761 13.6364 17.5 13.6364Z" stroke="white"/>
</svg>
