<svg width="177" height="74" viewBox="0 0 177 74" fill="none" xmlns="http://www.w3.org/2000/svg">
<path d="M38.1095 24.384C35.8695 24.384 33.9068 23.8933 32.2215 22.912C30.5575 21.9307 29.2455 20.576 28.2855 18.848C27.3468 17.0987 26.8775 15.0827 26.8775 12.8C26.8775 10.5173 27.3468 8.512 28.2855 6.784C29.2455 5.03467 30.5575 3.66933 32.2215 2.688C33.9068 1.70667 35.8695 1.216 38.1095 1.216C40.3282 1.216 42.2802 1.70667 43.9655 2.688C45.6508 3.66933 46.9628 5.03467 47.9015 6.784C48.8402 8.512 49.3095 10.5173 49.3095 12.8C49.3095 15.0827 48.8402 17.0987 47.9015 18.848C46.9628 20.576 45.6508 21.9307 43.9655 22.912C42.2802 23.8933 40.3282 24.384 38.1095 24.384ZM38.1095 20.704C40.2428 20.704 41.9388 20 43.1975 18.592C44.4775 17.184 45.1175 15.2533 45.1175 12.8C45.1175 10.3467 44.4775 8.416 43.1975 7.008C41.9388 5.6 40.2428 4.896 38.1095 4.896C35.9762 4.896 34.2695 5.6 32.9895 7.008C31.7095 8.416 31.0695 10.3467 31.0695 12.8C31.0695 15.2533 31.7095 17.184 32.9895 18.592C34.2695 20 35.9762 20.704 38.1095 20.704ZM52.83 24V0.959999H56.926V24H52.83ZM66.5833 24.384C65.2179 24.384 64.0979 24.1707 63.2233 23.744C62.3486 23.296 61.6979 22.7093 61.2713 21.984C60.8446 21.2587 60.6313 20.4587 60.6313 19.584C60.6313 18.112 61.2073 16.9173 62.3593 16C63.5113 15.0827 65.2393 14.624 67.5433 14.624H71.5753V14.24C71.5753 13.152 71.2659 12.352 70.6473 11.84C70.0286 11.328 69.2606 11.072 68.3433 11.072C67.5113 11.072 66.7859 11.2747 66.1673 11.68C65.5486 12.064 65.1646 12.64 65.0153 13.408H61.0153C61.1219 12.256 61.5059 11.2533 62.1673 10.4C62.8499 9.54667 63.7246 8.896 64.7913 8.448C65.8579 7.97867 67.0526 7.744 68.3753 7.744C70.6366 7.744 72.4179 8.30933 73.7193 9.44C75.0206 10.5707 75.6713 12.1707 75.6713 14.24V24H72.1833L71.7993 21.44C71.3299 22.2933 70.6686 22.9973 69.8153 23.552C68.9833 24.1067 67.9059 24.384 66.5833 24.384ZM67.5113 21.184C68.6846 21.184 69.5913 20.8 70.2313 20.032C70.8926 19.264 71.3086 18.3147 71.4793 17.184H67.9913C66.9033 17.184 66.1246 17.3867 65.6553 17.792C65.1859 18.176 64.9513 18.656 64.9513 19.232C64.9513 19.8507 65.1859 20.3307 65.6553 20.672C66.1246 21.0133 66.7433 21.184 67.5113 21.184ZM67.2233 6.848V3.968L74.4553 0.0639992V3.392L67.2233 6.848ZM80.444 16.928L79.996 1.6H84.38L83.9 16.928H80.444ZM82.268 24.224C81.5 24.224 80.8707 23.9893 80.38 23.52C79.9107 23.0507 79.676 22.4853 79.676 21.824C79.676 21.1413 79.9107 20.5653 80.38 20.096C80.8707 19.6267 81.5 19.392 82.268 19.392C82.9933 19.392 83.5907 19.6267 84.06 20.096C84.5507 20.5653 84.796 21.1413 84.796 21.824C84.796 22.4853 84.5507 23.0507 84.06 23.52C83.5907 23.9893 82.9933 24.224 82.268 24.224ZM104.418 24.384C102.775 24.384 101.324 24.1067 100.066 23.552C98.8071 22.976 97.8151 22.1653 97.0898 21.12C96.3644 20.0533 95.9911 18.7627 95.9698 17.248H100.29C100.332 18.2933 100.706 19.1787 101.41 19.904C102.135 20.608 103.127 20.96 104.386 20.96C105.474 20.96 106.338 20.704 106.978 20.192C107.618 19.6587 107.938 18.9547 107.938 18.08C107.938 17.1627 107.65 16.448 107.074 15.936C106.519 15.424 105.772 15.008 104.834 14.688C103.895 14.368 102.892 14.0267 101.826 13.664C100.098 13.0667 98.7751 12.2987 97.8578 11.36C96.9618 10.4213 96.5138 9.17333 96.5138 7.616C96.4924 6.29333 96.8018 5.16267 97.4418 4.224C98.1031 3.264 98.9991 2.528 100.13 2.016C101.26 1.48267 102.562 1.216 104.034 1.216C105.527 1.216 106.839 1.48267 107.97 2.016C109.122 2.54933 110.018 3.296 110.658 4.256C111.319 5.216 111.671 6.35733 111.714 7.68H107.33C107.308 6.89067 106.999 6.19733 106.402 5.6C105.826 4.98133 105.015 4.672 103.97 4.672C103.074 4.65067 102.316 4.87467 101.698 5.344C101.1 5.792 100.802 6.45333 100.802 7.328C100.802 8.07467 101.036 8.672 101.506 9.12C101.975 9.54667 102.615 9.90933 103.426 10.208C104.236 10.5067 105.164 10.8267 106.21 11.168C107.319 11.552 108.332 12 109.25 12.512C110.167 13.024 110.903 13.7067 111.458 14.56C112.012 15.392 112.29 16.4693 112.29 17.792C112.29 18.9653 111.991 20.0533 111.394 21.056C110.796 22.0587 109.911 22.8693 108.738 23.488C107.564 24.0853 106.124 24.384 104.418 24.384ZM123.384 24.384C121.848 24.384 120.461 24.032 119.224 23.328C118.008 22.624 117.037 21.6533 116.312 20.416C115.608 19.1573 115.256 17.7067 115.256 16.064C115.256 14.4213 115.618 12.9813 116.344 11.744C117.069 10.4853 118.04 9.504 119.256 8.8C120.493 8.096 121.88 7.744 123.416 7.744C124.93 7.744 126.296 8.096 127.512 8.8C128.749 9.504 129.72 10.4853 130.424 11.744C131.149 12.9813 131.512 14.4213 131.512 16.064C131.512 17.7067 131.149 19.1573 130.424 20.416C129.72 21.6533 128.749 22.624 127.512 23.328C126.274 24.032 124.898 24.384 123.384 24.384ZM123.384 20.832C124.45 20.832 125.378 20.4373 126.168 19.648C126.957 18.8373 127.352 17.6427 127.352 16.064C127.352 14.4853 126.957 13.3013 126.168 12.512C125.378 11.7013 124.461 11.296 123.416 11.296C122.328 11.296 121.389 11.7013 120.6 12.512C119.832 13.3013 119.448 14.4853 119.448 16.064C119.448 17.6427 119.832 18.8373 120.6 19.648C121.389 20.4373 122.317 20.832 123.384 20.832ZM141.126 24.384C139.142 24.384 137.606 23.7653 136.518 22.528C135.451 21.2907 134.918 19.4773 134.918 17.088V8.128H138.982V16.704C138.982 18.0693 139.259 19.1147 139.814 19.84C140.368 20.5653 141.243 20.928 142.438 20.928C143.568 20.928 144.496 20.5227 145.222 19.712C145.968 18.9013 146.342 17.7707 146.342 16.32V8.128H150.438V24H146.822L146.502 21.312C146.011 22.2507 145.296 22.9973 144.358 23.552C143.44 24.1067 142.363 24.384 141.126 24.384ZM7.40763 66V46.896H0.879625V43.6H18.0636V46.896H11.5036V66H7.40763ZM25.7429 66.384C24.2069 66.384 22.8202 66.032 21.5829 65.328C20.3669 64.624 19.3962 63.6533 18.6709 62.416C17.9669 61.1573 17.6149 59.7067 17.6149 58.064C17.6149 56.4213 17.9775 54.9813 18.7029 53.744C19.4282 52.4853 20.3989 51.504 21.6149 50.8C22.8522 50.096 24.2389 49.744 25.7749 49.744C27.2895 49.744 28.6549 50.096 29.8709 50.8C31.1082 51.504 32.0789 52.4853 32.7829 53.744C33.5082 54.9813 33.8709 56.4213 33.8709 58.064C33.8709 59.7067 33.5082 61.1573 32.7829 62.416C32.0789 63.6533 31.1082 64.624 29.8709 65.328C28.6335 66.032 27.2575 66.384 25.7429 66.384ZM25.7429 62.832C26.8095 62.832 27.7375 62.4373 28.5269 61.648C29.3162 60.8373 29.7109 59.6427 29.7109 58.064C29.7109 56.4853 29.3162 55.3013 28.5269 54.512C27.7375 53.7013 26.8202 53.296 25.7749 53.296C24.6869 53.296 23.7482 53.7013 22.9589 54.512C22.1909 55.3013 21.8069 56.4853 21.8069 58.064C21.8069 59.6427 22.1909 60.8373 22.9589 61.648C23.7482 62.4373 24.6762 62.832 25.7429 62.832ZM37.5331 66V50.128H41.1491L41.4691 52.816C41.9598 51.8773 42.6638 51.1307 43.5811 50.576C44.5198 50.0213 45.6185 49.744 46.8771 49.744C48.8398 49.744 50.3651 50.3627 51.4531 51.6C52.5411 52.8373 53.0851 54.6507 53.0851 57.04V66H48.9891V57.424C48.9891 56.0587 48.7118 55.0133 48.1571 54.288C47.6025 53.5627 46.7385 53.2 45.5651 53.2C44.4131 53.2 43.4638 53.6053 42.7171 54.416C41.9918 55.2267 41.6291 56.3573 41.6291 57.808V66H37.5331ZM58.4546 73.04L62.1346 64.944H61.1746L54.9986 50.128H59.4466L63.8946 61.296L68.5346 50.128H72.8866L62.8066 73.04H58.4546ZM81.8454 66L90.0374 43.6H94.6454L102.837 66H98.4854L96.6934 60.816H87.9574L86.1334 66H81.8454ZM89.0774 57.616H95.5734L92.3094 48.304L89.0774 57.616ZM105.627 66V42.96H109.723V66H105.627ZM123.316 66.384C122.121 66.384 121.076 66.16 120.18 65.712C119.284 65.264 118.559 64.6347 118.004 63.824L117.556 66H113.908V42.96H118.004V52.4C118.516 51.696 119.188 51.0773 120.02 50.544C120.873 50.0107 121.972 49.744 123.316 49.744C124.809 49.744 126.143 50.1067 127.316 50.832C128.489 51.5573 129.417 52.5493 130.1 53.808C130.783 55.0667 131.124 56.496 131.124 58.096C131.124 59.696 130.783 61.1253 130.1 62.384C129.417 63.6213 128.489 64.6027 127.316 65.328C126.143 66.032 124.809 66.384 123.316 66.384ZM122.452 62.8C123.753 62.8 124.831 62.3627 125.684 61.488C126.537 60.6133 126.964 59.4827 126.964 58.096C126.964 56.7093 126.537 55.568 125.684 54.672C124.831 53.776 123.753 53.328 122.452 53.328C121.129 53.328 120.041 53.776 119.188 54.672C118.356 55.5467 117.94 56.6773 117.94 58.064C117.94 59.4507 118.356 60.592 119.188 61.488C120.041 62.3627 121.129 62.8 122.452 62.8ZM142.495 66.384C140.895 66.384 139.476 66.0427 138.239 65.36C137.002 64.6773 136.031 63.7173 135.327 62.48C134.623 61.2427 134.271 59.8133 134.271 58.192C134.271 56.5493 134.612 55.088 135.295 53.808C135.999 52.528 136.959 51.536 138.175 50.832C139.412 50.1067 140.863 49.744 142.527 49.744C144.084 49.744 145.46 50.0853 146.655 50.768C147.85 51.4507 148.778 52.3893 149.439 53.584C150.122 54.7573 150.463 56.0693 150.463 57.52C150.463 57.7547 150.452 58 150.431 58.256C150.431 58.512 150.42 58.7787 150.399 59.056H138.335C138.42 60.2933 138.847 61.264 139.615 61.968C140.404 62.672 141.354 63.024 142.463 63.024C143.295 63.024 143.988 62.8427 144.543 62.48C145.119 62.096 145.546 61.6053 145.823 61.008H149.983C149.684 62.0107 149.183 62.928 148.479 63.76C147.796 64.5707 146.943 65.2107 145.919 65.68C144.916 66.1493 143.775 66.384 142.495 66.384ZM142.527 53.072C141.524 53.072 140.639 53.36 139.871 53.936C139.103 54.4907 138.612 55.344 138.399 56.496H146.303C146.239 55.4507 145.855 54.6187 145.151 54C144.447 53.3813 143.572 53.072 142.527 53.072ZM153.908 66V50.128H157.556L157.94 53.104C158.516 52.08 159.295 51.2693 160.276 50.672C161.279 50.0533 162.452 49.744 163.796 49.744V54.064H162.644C161.748 54.064 160.948 54.2027 160.244 54.48C159.54 54.7573 158.985 55.2373 158.58 55.92C158.196 56.6027 158.004 57.552 158.004 58.768V66H153.908ZM173.668 66C172.004 66 170.67 65.5947 169.668 64.784C168.665 63.9733 168.164 62.5333 168.164 60.464V53.552H165.444V50.128H168.164L168.644 45.872H172.26V50.128H176.548V53.552H172.26V60.496C172.26 61.264 172.42 61.7973 172.74 62.096C173.081 62.3733 173.657 62.512 174.468 62.512H176.452V66H173.668Z" fill="white"/>
</svg>
